<svg width="30" height="28" fill="none" class="icon" xmlns="http://www.w3.org/2000/svg"><path d="M30 12a7.3 7.3 0 0 0-2.2-5.2 7.1 7.1 0 0 0-4.3-2 .3.3 0 0 1-.3-.1A9.6 9.6 0 0 0 5.6 7.5a.3.3 0 0 1-.3.3A5.7 5.7 0 0 0 0 13.5a5.4 5.4 0 0 0 1.5 4 7 7 0 0 0 4.6 1.7 1.2 1.2 0 0 0 1.1-.8V18A1.3 1.3 0 0 0 6 16.7a4.1 4.1 0 0 1-2.7-1 3 3 0 0 1-.8-2.2A3.2 3.2 0 0 1 3.7 11a3.2 3.2 0 0 1 2.7-.7 1.3 1.3 0 0 0 1.5-1.1 7.1 7.1 0 0 1 13.5-2.6 1.2 1.2 0 0 0 1.2.7 4.6 4.6 0 0 1 3.5 1.3 4.7 4.7 0 0 1 1.4 3.4 4.8 4.8 0 0 1-4.3 4.7 1.3 1.3 0 1 0 .3 2.5A7.3 7.3 0 0 0 30 12Z" fill="#fff"/><path d="M19.4 20.5h-2.2a.3.3 0 0 1-.3-.3v-9a1.9 1.9 0 0 0-3.8 0v9a.3.3 0 0 1-.3.3h-2.2a1.2 1.2 0 0 0-.9 2.1l4.4 4.4a1.3 1.3 0 0 0 1.8 0l4.4-4.4a1.3 1.3 0 0 0-.2-1.9 1.2 1.2 0 0 0-.7-.2Z" fill="#fff"/></svg>