<svg width="68" height="28" fill="none" xmlns="http://www.w3.org/2000/svg"><circle cx="14" cy="14" r="14" fill="#121212" fill-opacity=".8"/><path d="M16.3 7.3c.6.1 1.1.7.8 1.3l-.5.6-5 4.3-.2.4c0 .2.1.2.2.3l4.9 4.4c.2.3.6.6.6 1 .1.3 0 .6-.2.8a1 1 0 0 1-.9.3l-.7-.5-5.8-5c-.3-.3-.6-.7-.6-1 0-.5.2-.8.5-1l1.5-1.5 4.3-3.8.6-.4c.2-.2.4-.2.5-.2Z" fill="#fff"/><circle cx="54" cy="14" r="14" transform="rotate(180 54 14)" fill="#121212" fill-opacity=".3"/><path d="M51.7 20.7c-.6-.1-1.1-.8-.8-1.3l.5-.6 5-4.3.2-.4c0-.2-.1-.2-.2-.3l-4.9-4.4c-.2-.2-.6-.6-.6-1-.1-.2 0-.6.2-.8.2-.2.6-.3.9-.2.3 0 .5.2.7.4l5.8 5c.3.3.6.7.6 1 0 .5-.2.8-.5 1l-1.5 1.6-4.3 3.7-.6.4c-.2.2-.4.2-.5.2Z" fill="#fff"/></svg>